<?xml version="1.0" encoding="utf-8" standalone="yes"?>
<!DOCTYPE svg PUBLIC "-//W3C//DTD SVG 1.1//EN" "http://www.w3.org/Graphics/SVG/1.1/DTD/svg11.dtd">
<svg xmlns="http://www.w3.org/2000/svg" xmlns:xlink="http://www.w3.org/1999/xlink" xmlns:dc="http://purl.org/dc/elements/1.1/" xmlns:cc="http://web.resource.org/cc/" xmlns:rdf="http://www.w3.org/1999/02/22-rdf-syntax-ns#" xmlns:sodipodi="http://sodipodi.sourceforge.net/DTD/sodipodi-0.dtd" xmlns:inkscape="http://www.inkscape.org/namespaces/inkscape" height="100%" id="svg_document" width="100%" baseProfile="full" version="1.1" preserveAspectRatio="xMidYMid meet" viewBox="0 0 500 500"><!-- Created with macSVG - https://macsvg.org/ - https://github.com/dsward2/macsvg/ --><title id="svg_document_title">Untitled.svg</title><defs id="svg_document_defs"></defs><g id="main_group"></g><path stroke="none" id="path4" stroke-width="3px" d="M255.5,66 C268.5,61 277.5,64.5 277.5,64.5 C277.5,64.5 275,96 275,96 C275,96 257.5,98 257.5,98" fill="#f9b265" transform=""></path><path stroke="none" id="path3" stroke-width="3px" d="M255.5,66.5 C264,69 278,65 278,65 C278,65 274.5,98 274.5,98 C274.5,98 257.5,97.5 257.5,97.5" fill="#d19656" transform=""></path><path stroke="#000000" id="winebottle1" stroke-width="0px" d="M275,89.5 C275,89.5 257,89.5 257,89.5 C257,89.5 252,195.5 252,195.5 C252,195.5 214,225.5 214,225.5 C214,225.5 216,456.5 216,456.5 C216,456.5 245,468.5 266,467.5 C287,466.5 317,458.5 317,458.5 C317,458.5 320,226.5 320,226.5 C320,226.5 287,201.5 287,201.5 C287,201.5 275,89.5 275,89.5  Z  Z  Z  Z  Z " fill="darkgreen" new_attribute_1="0" transform=""></path><rect stroke="none" x="253px" height="10px" y="82px" id="rect1" stroke-width="3px" width="28px" fill="#0a6f00" transform=""></rect><path points="" stroke="black" id="path5" stroke-width="0px" d="M116,93 C84,395 438,415 381,120 " fill="none" transform=""></path><polygon points="249,210 263,212 254,450 228,439 229,228" stroke="#000000" id="polygon1" stroke-width="0px" fill="green" transform=""></polygon><path stroke="#000000" id="path1" stroke-width="0px" d="M224,237 C224,237 266,258 308,239 C308,239 308,417 308,417 C308,417 275,453 224,421 C224,421 224,246 224,246 C224,246 224,237 224,237  Z  Z " fill="beige" transform=""></path><text stroke="none" style="outline-style: none;" id="text1" stroke-width="1px" x="284px" text-rendering="geometricPrecision" font-family="Courier New" fill="#4a4830" letter-spacing="4px" font-size="32px" y="476px" transform="" text-anchor="inherit" font-stretch="wider"><textPath xlink:href="#path5">401</textPath></text><polygon points="256,195.5 260,104 266.5,104 264.5,196.5" stroke="#000000" id="polygon2" stroke-width="0px" fill="green" transform=""></polygon></svg>
