<?xml version="1.0" encoding="UTF-8" standalone="no"?>
<svg
   xmlns:dc="http://purl.org/dc/elements/1.1/"
   xmlns:cc="http://creativecommons.org/ns#"
   xmlns:rdf="http://www.w3.org/1999/02/22-rdf-syntax-ns#"
   xmlns:svg="http://www.w3.org/2000/svg"
   xmlns="http://www.w3.org/2000/svg"
   xmlns:xlink="http://www.w3.org/1999/xlink"
   xmlns:sodipodi="http://sodipodi.sourceforge.net/DTD/sodipodi-0.dtd"
   xmlns:inkscape="http://www.inkscape.org/namespaces/inkscape"
   cursor="crosshair"
   style="zoom: 1;"
   height="500px"
   id="svg_document"
   width="500px"
   version="1.1"
   preserveAspectRatio="xMidYMid meet"
   viewBox="0 0 500 500"
   sodipodi:docname="winebottle.svg">
  <metadata
     id="metadata1038">
    <rdf:RDF>
      <cc:Work
         rdf:about="">
        <dc:format>image/svg+xml</dc:format>
        <dc:type
           rdf:resource="http://purl.org/dc/dcmitype/StillImage" />
      </cc:Work>
    </rdf:RDF>
  </metadata>
  <sodipodi:namedview
     pagecolor="#ffffff"
     bordercolor="#666666"
     inkscape:document-rotation="0"
     borderopacity="1"
     objecttolerance="10"
     gridtolerance="10"
     guidetolerance="10"
     inkscape:pageopacity="0"
     inkscape:pageshadow="2"
     inkscape:window-width="640"
     inkscape:window-height="480"
     id="namedview1036"
     showgrid="false"
     inkscape:lockguides="false" />
  <!-- Created with macSVG - https://macsvg.org/ - https://github.com/dsward2/macsvg/ -->
  <title
     id="svg_document_title">Untitled.svg</title>
  <defs
     id="svg_document_defs" />
  <path
     stroke="none"
     id="path4"
     stroke-width="3px"
     d="M255.5,66 C268.5,61 277.5,64.5 277.5,64.5 C277.5,64.5 275,96 275,96 C275,96 257.5,98 257.5,98 "
     fill="#f9b265"
     transform="" />
  <path
     stroke="none"
     id="path3"
     stroke-width="3px"
     d="M255.5,66.5 C264,69 278,65 278,65 C278,65 274.5,98 274.5,98 C274.5,98 257.5,97.5 257.5,97.5 "
     fill="#d19656"
     transform="" />
  <path
     stroke="#000000"
     id="path1"
     stroke-width="0px"
     d="M275,89.5 C275,89.5 257,89.5 257,89.5 C257,89.5 252,195.5 252,195.5 C252,195.5 214,225.5 214,225.5 C214,225.5 216,456.5 216,456.5 C216,456.5 245,468.5 266,467.5 C287,466.5 317,458.5 317,458.5 C317,458.5 320,226.5 320,226.5 C320,226.5 287,201.5 287,201.5 C287,201.5 275,89.5 275,89.5  Z  Z "
     fill="darkgreen"
     new_attribute_1="0"
     transform="" />
  <path
     stroke="#000000"
     id="path2"
     stroke-width="0px"
     d="M221,255 C268,265 308,254 308,254 C308,254 307,414 307,414 C307,414 284,423 267,421 C250,419 229,412 229,412 C229,412 222,255 222,255 "
     fill="antiquewhite"
     transform="" />
  <rect
     stroke="none"
     x="253px"
     height="10px"
     y="82px"
     id="rect1"
     stroke-width="3px"
     width="28px"
     fill="#0a6f00"
     transform="" />
  <path />
  <text
     stroke="none"
     id="text1"
     stroke-width="1px"
     x="264"
     text-rendering="geometricPrecision"
     font-family="Courier New"
     fill="#4a4830"
     letter-spacing="4px"
     font-size="32px"
     transform="translate(138.44674,158.34846)"
     y="473"
     text-anchor="inherit"
     font-stretch="wider"><textPath
       xlink:href="#path5"
       id="textPath1032">404</textPath></text>
</svg>
